<svg width="1337" height="1611" xmlns="http://www.w3.org/2000/svg" xmlns:xlink="http://www.w3.org/1999/xlink" overflow="hidden"><defs><clipPath id="clip0"><rect x="238" y="674" width="1337" height="1611"/></clipPath><linearGradient x1="906.5" y1="1121" x2="261" y2="1121" gradientUnits="userSpaceOnUse" spreadMethod="reflect" id="fill1"><stop offset="0" stop-color="#0000FF"/><stop offset="0.48" stop-color="#000064"/><stop offset="0.98" stop-color="#000032"/><stop offset="1" stop-color="#000032"/></linearGradient><linearGradient x1="906.5" y1="1836" x2="1552" y2="1836" gradientUnits="userSpaceOnUse" spreadMethod="reflect" id="fill2"><stop offset="0" stop-color="#0000FF"/><stop offset="0.48" stop-color="#000064"/><stop offset="0.98" stop-color="#000032"/><stop offset="1" stop-color="#000032"/></linearGradient></defs><g clip-path="url(#clip0)" transform="translate(-238 -674)"><path d="M906.023 1544C549.523 1543.83 260.737 1354.3 261 1120.69 261.264 887.192 550.186 697.999 906.5 697.999Z" stroke="#FFFFFF" stroke-width="45.8333" stroke-miterlimit="8" fill="url(#fill1)" fill-rule="evenodd"/><path d="M899.925 1413C684.537 1412.14 510.86 1280.49 512.005 1118.94 513.147 958.011 687.418 828 902 828Z" stroke="#FFFFFF" stroke-width="45.8333" stroke-miterlimit="8" fill="#F88526" fill-rule="evenodd"/><path d="M905.471 698.001C962.908 698.167 1009.26 728.075 1009 764.802 1008.74 801.41 962.253 831 905 831Z" stroke="#FFFFFF" stroke-width="45.8333" stroke-miterlimit="8" fill="#F88526" fill-rule="evenodd"/><path d="M906.977 1413C1263.48 1413.17 1552.26 1602.7 1552 1836.31 1551.74 2069.81 1262.81 2259 906.5 2259Z" stroke="#FFFFFF" stroke-width="45.8333" stroke-miterlimit="8" fill="url(#fill2)" fill-rule="evenodd"/><path d="M910.574 1543C1125.69 1543.86 1299.14 1675.52 1297.99 1837.06 1296.85 1997.99 1122.81 2128 908.5 2128Z" stroke="#FFFFFF" stroke-width="45.8333" stroke-miterlimit="8" fill="#F88526" fill-rule="evenodd"/><path d="M904.528 2261C847.091 2260.83 800.741 2230.92 801.001 2194.2 801.261 2157.59 847.747 2128 905 2128Z" stroke="#FFFFFF" stroke-width="45.8333" stroke-miterlimit="8" fill="#F88526" fill-rule="evenodd"/></g></svg>